<?xml version="1.0" standalone="no"?>
<!DOCTYPE svg PUBLIC "-//W3C//DTD SVG 20010904//EN"
 "http://www.w3.org/TR/2001/REC-SVG-20010904/DTD/svg10.dtd">
<svg version="1.0" xmlns="http://www.w3.org/2000/svg"
 width="2100.000000pt" height="1500.000000pt" viewBox="0 0 2100.000000 1500.000000"
 preserveAspectRatio="xMidYMid meet">

<g transform="translate(0.000000,1500.000000) scale(0.100000,-0.100000)"
fill="#000000" stroke="none">
<path d="M7800 11273 c-1 -5 -186 -195 -413 -424 -227 -228 -324 -325 -217
-214 l195 200 -219 -217 c-121 -120 -224 -220 -230 -222 -6 -2 1153 -5 2576
-5 1622 -1 2589 -5 2593 -10 3 -6 -4 -15 -16 -21 -17 -10 -20 -9 -14 2 4 7 -3
2 -15 -12 -12 -14 -19 -19 -15 -12 6 11 3 12 -14 3 -11 -7 -21 -14 -21 -17 0
-3 5 -2 10 1 6 3 10 4 10 1 0 -3 -10 -10 -21 -17 -17 -9 -20 -8 -14 3 4 7 -3
2 -15 -12 -12 -14 -19 -19 -15 -12 6 11 3 12 -14 3 -11 -7 -21 -14 -21 -17 0
-3 5 -2 10 1 6 3 10 4 10 1 0 -3 -10 -10 -21 -17 -17 -9 -20 -8 -14 3 4 7 -3
2 -15 -12 -12 -14 -19 -19 -15 -12 6 11 3 12 -14 3 -11 -7 -21 -14 -21 -17 0
-3 5 -2 10 1 6 3 10 4 10 1 0 -3 -10 -10 -21 -17 -17 -9 -20 -8 -14 3 4 7 -3
2 -15 -12 -12 -14 -19 -19 -15 -12 6 11 3 12 -14 3 -11 -7 -21 -14 -21 -17 0
-3 5 -2 10 1 6 3 10 4 10 1 0 -3 -10 -10 -21 -17 -16 -8 -20 -8 -14 1 6 9 2 9
-14 1 -22 -12 -30 -27 -8 -16 18 10 -25 -25 -47 -37 -14 -7 -17 -7 -11 2 6 9
2 9 -14 1 -22 -12 -30 -27 -8 -16 18 10 -25 -25 -47 -37 -14 -7 -17 -7 -11 2
6 9 2 9 -14 1 -11 -7 -21 -14 -21 -17 0 -3 5 -2 10 1 6 3 10 4 10 1 0 -3 -10
-10 -21 -17 -17 -9 -20 -8 -14 3 4 7 -3 2 -15 -12 -12 -14 -19 -19 -15 -12 6
11 3 12 -14 3 -11 -7 -21 -14 -21 -17 0 -3 5 -2 10 1 6 3 10 4 10 1 0 -3 -10
-10 -21 -17 -17 -9 -20 -8 -14 3 4 7 -3 2 -15 -12 -12 -14 -19 -19 -15 -12 12
22 -36 -5 -64 -36 -13 -15 -20 -21 -16 -14 6 11 3 12 -14 3 -11 -7 -21 -14
-21 -17 0 -3 5 -2 10 1 6 3 10 4 10 1 0 -3 -10 -10 -21 -17 -17 -9 -20 -8 -14
3 4 7 -3 2 -15 -12 -12 -14 -19 -19 -15 -12 6 11 3 12 -14 3 -11 -7 -21 -14
-21 -17 0 -3 5 -2 10 1 6 3 10 4 10 1 0 -3 -10 -10 -21 -17 -17 -9 -20 -8 -14
3 4 7 -3 2 -15 -12 -12 -14 -19 -19 -15 -12 6 11 3 12 -14 3 -11 -7 -21 -14
-21 -17 0 -3 5 -2 10 1 6 3 10 4 10 1 0 -3 -10 -10 -21 -17 -16 -8 -20 -8 -14
1 6 9 2 9 -14 1 -22 -12 -30 -27 -8 -16 18 10 -25 -25 -47 -37 -14 -7 -17 -7
-11 2 6 9 2 9 -14 1 -22 -12 -30 -27 -8 -16 18 10 -25 -25 -47 -37 -14 -7 -17
-7 -11 2 6 9 2 9 -14 1 -11 -7 -21 -14 -21 -17 0 -3 5 -2 10 1 6 3 10 4 10 1
0 -3 -10 -10 -21 -17 -17 -9 -20 -8 -14 3 4 7 -3 2 -15 -12 -12 -14 -19 -19
-15 -12 6 11 3 12 -14 3 -11 -7 -21 -14 -21 -17 0 -3 5 -2 10 1 6 3 10 4 10 1
0 -3 -10 -10 -21 -17 -17 -9 -20 -8 -14 3 4 7 -3 2 -15 -12 -12 -14 -19 -19
-15 -12 6 11 3 12 -14 3 -11 -7 -21 -14 -21 -17 0 -3 5 -2 10 1 6 3 10 4 10 1
0 -3 -10 -10 -21 -17 -17 -9 -20 -8 -14 3 4 7 -3 2 -15 -12 -12 -14 -19 -19
-15 -12 6 11 3 12 -14 3 -11 -7 -21 -14 -21 -17 0 -3 5 -2 10 1 6 3 10 4 10 1
0 -3 -10 -10 -21 -17 -17 -9 -20 -8 -14 3 4 7 -3 2 -15 -12 -12 -14 -19 -19
-15 -12 6 11 3 12 -14 3 -11 -7 -21 -14 -21 -17 0 -3 5 -2 10 1 6 3 10 4 10 1
0 -3 -10 -10 -21 -17 -17 -9 -20 -8 -14 3 4 7 -3 2 -15 -12 -12 -14 -19 -19
-15 -12 6 11 3 12 -14 3 -11 -7 -21 -14 -21 -17 0 -3 5 -2 10 1 6 3 10 4 10 1
0 -3 -10 -10 -21 -17 -16 -8 -20 -8 -14 1 13 21 -38 -9 -64 -38 -13 -15 -20
-21 -16 -14 6 11 3 12 -14 3 -22 -12 -30 -27 -8 -16 18 10 -25 -25 -47 -37
-14 -7 -17 -7 -11 2 6 9 2 9 -14 1 -11 -7 -21 -14 -21 -17 0 -3 5 -2 10 1 6 3
10 4 10 1 0 -3 -10 -10 -21 -17 -17 -9 -20 -8 -14 3 4 7 -3 2 -15 -12 -12 -14
-19 -19 -15 -12 6 11 3 12 -14 3 -11 -7 -21 -14 -21 -17 0 -3 5 -2 10 1 6 3
10 4 10 1 0 -3 -10 -10 -21 -17 -17 -9 -20 -8 -14 3 4 7 -3 2 -15 -12 -12 -14
-19 -19 -15 -12 6 11 3 12 -14 3 -11 -7 -21 -14 -21 -17 0 -3 5 -2 10 1 6 3
10 4 10 1 0 -3 -10 -10 -21 -17 -17 -9 -20 -8 -14 3 4 7 -3 2 -15 -12 -12 -14
-19 -19 -15 -12 6 11 3 12 -14 3 -11 -7 -21 -14 -21 -17 0 -3 5 -2 10 1 6 3
10 4 10 1 0 -3 -10 -10 -21 -17 -17 -9 -20 -8 -14 3 4 7 -3 2 -15 -12 -12 -14
-19 -19 -15 -12 6 11 3 12 -14 3 -11 -7 -21 -14 -21 -17 0 -3 5 -2 10 1 6 3
10 4 10 1 0 -3 -10 -10 -21 -17 -17 -9 -20 -8 -14 3 4 7 -3 2 -15 -12 -12 -14
-19 -19 -15 -12 6 11 3 12 -14 3 -11 -7 -21 -14 -21 -17 0 -3 5 -2 10 1 6 3
10 4 10 1 0 -3 -10 -10 -21 -17 -16 -8 -20 -8 -14 1 6 9 2 9 -14 1 -22 -12
-30 -27 -8 -16 18 10 -25 -25 -47 -37 -14 -7 -17 -7 -11 2 6 9 2 9 -14 1 -22
-12 -30 -27 -8 -16 18 10 -25 -25 -47 -37 -14 -7 -17 -7 -11 2 6 9 2 9 -14 1
-11 -7 -21 -14 -21 -17 0 -3 5 -2 10 1 6 3 10 4 10 1 0 -3 -10 -10 -21 -17
-17 -9 -20 -8 -14 3 4 7 -3 2 -15 -12 -12 -14 -19 -19 -15 -12 6 11 3 12 -14
3 -11 -7 -21 -14 -21 -17 0 -3 5 -2 10 1 6 3 10 4 10 1 0 -3 -10 -10 -21 -17
-17 -9 -20 -8 -14 3 4 7 -3 2 -15 -12 -12 -14 -19 -19 -15 -12 6 11 3 12 -14
3 -11 -7 -21 -14 -21 -17 0 -3 5 -2 10 1 6 3 10 4 10 1 0 -3 -10 -10 -21 -17
-17 -9 -20 -8 -14 3 4 7 -3 2 -15 -12 -12 -14 -19 -19 -15 -12 6 11 3 12 -14
3 -11 -7 -21 -14 -21 -17 0 -3 5 -2 10 1 6 3 10 4 10 1 0 -3 -10 -10 -21 -17
-17 -9 -20 -8 -14 3 4 7 -3 2 -15 -12 -12 -14 -19 -19 -15 -12 6 11 3 12 -14
3 -11 -7 -21 -14 -21 -17 0 -3 5 -2 10 1 6 3 10 4 10 1 0 -3 -10 -10 -21 -17
-16 -8 -20 -8 -14 1 6 9 3 9 -11 2 -22 -12 -65 -47 -46 -37 21 11 13 -4 -9
-16 -16 -8 -20 -8 -14 1 6 9 2 9 -14 1 -22 -12 -30 -27 -8 -16 18 10 -25 -25
-47 -37 -14 -7 -17 -7 -11 2 6 9 2 9 -14 1 -22 -12 -30 -27 -8 -16 18 10 -25
-25 -47 -37 -14 -7 -17 -7 -11 2 6 9 2 9 -14 1 -11 -7 -21 -14 -21 -17 0 -3 5
-2 10 1 6 3 10 4 10 1 0 -3 -10 -10 -21 -17 -17 -9 -20 -8 -14 3 4 7 -3 2 -15
-12 -12 -14 -19 -19 -15 -12 6 11 3 12 -14 3 -11 -7 -21 -14 -21 -17 0 -3 5
-2 10 1 6 3 10 4 10 1 0 -3 -10 -10 -21 -17 -17 -9 -20 -8 -14 3 4 7 -3 2 -15
-12 -12 -14 -19 -19 -15 -12 6 11 3 12 -14 3 -11 -7 -21 -14 -21 -17 0 -3 5
-2 10 1 6 3 10 4 10 1 0 -3 -10 -10 -21 -17 -17 -9 -20 -8 -14 3 4 7 -3 2 -15
-12 -12 -14 -19 -19 -15 -12 6 11 3 12 -14 3 -11 -7 -21 -14 -21 -17 0 -3 5
-2 10 1 6 3 10 4 10 1 0 -3 -10 -10 -21 -17 -17 -9 -20 -8 -14 3 4 7 -3 2 -15
-12 -12 -14 -19 -19 -15 -12 6 11 3 12 -14 3 -11 -7 -21 -14 -21 -17 0 -3 5
-2 10 1 6 3 10 4 10 1 0 -3 -10 -10 -21 -17 -16 -8 -20 -8 -14 1 6 9 3 9 -11
2 -22 -12 -65 -47 -46 -37 21 11 13 -4 -9 -16 -16 -8 -20 -8 -14 1 6 9 2 9
-14 1 -22 -12 -30 -27 -8 -16 18 10 -25 -25 -47 -37 -14 -7 -17 -7 -11 2 6 9
2 9 -14 1 -22 -12 -30 -27 -8 -16 18 10 -25 -25 -47 -37 -14 -7 -17 -7 -11 2
6 9 2 9 -14 1 -11 -7 -21 -14 -21 -17 0 -3 5 -2 10 1 6 3 10 4 10 1 0 -3 -10
-10 -21 -17 -17 -9 -20 -8 -14 3 4 7 -3 2 -15 -12 -12 -14 -19 -19 -15 -12 6
11 3 12 -14 3 -11 -7 -21 -14 -21 -17 0 -3 5 -2 10 1 6 3 10 4 10 1 0 -3 -10
-10 -21 -17 -17 -9 -20 -8 -14 3 4 7 -3 2 -15 -12 -12 -14 -19 -19 -15 -12 6
11 3 12 -14 3 -11 -7 -21 -14 -21 -17 0 -3 5 -2 10 1 6 3 10 4 10 1 0 -3 -10
-10 -21 -17 -17 -9 -20 -8 -14 3 4 7 -3 2 -15 -12 -12 -14 -19 -19 -15 -12 6
11 3 12 -14 3 -11 -7 -21 -14 -21 -17 0 -3 5 -2 10 1 6 3 10 4 10 1 0 -3 -10
-10 -21 -17 -17 -9 -20 -8 -14 3 4 7 -3 2 -15 -12 -12 -14 -19 -19 -15 -12 6
11 3 12 -14 3 -11 -7 -21 -14 -21 -17 0 -3 5 -2 10 1 6 3 10 4 10 1 0 -3 -10
-10 -21 -17 -16 -8 -20 -8 -14 1 6 9 2 9 -14 1 -22 -12 -30 -27 -8 -16 18 10
-25 -25 -47 -37 -14 -7 -17 -7 -11 2 6 9 2 9 -14 1 -22 -12 -30 -27 -8 -16 18
10 -25 -25 -47 -37 -14 -7 -17 -7 -11 2 6 9 2 9 -14 1 -11 -7 -21 -14 -21 -17
0 -3 5 -2 10 1 6 3 10 4 10 1 0 -3 -10 -10 -21 -17 -17 -9 -20 -8 -14 3 4 7
-3 2 -15 -12 -12 -14 -19 -19 -15 -12 6 11 3 12 -14 3 -11 -7 -21 -14 -21 -17
0 -3 5 -2 10 1 6 3 10 4 10 1 0 -3 -10 -10 -21 -17 -17 -9 -20 -8 -14 3 4 7
-3 2 -15 -12 -12 -14 -19 -19 -15 -12 6 11 3 12 -14 3 -11 -7 -21 -14 -21 -17
0 -3 5 -2 10 1 6 3 10 4 10 1 0 -3 -10 -10 -21 -17 -17 -9 -20 -8 -14 3 4 7
-3 2 -15 -12 -12 -14 -19 -19 -15 -12 6 11 3 12 -14 3 -11 -7 -21 -14 -21 -17
0 -3 5 -2 10 1 6 3 10 4 10 1 0 -3 -10 -10 -21 -17 -17 -9 -20 -8 -14 3 4 7
-3 2 -15 -12 -12 -14 -19 -19 -15 -12 6 11 3 12 -14 3 -11 -7 -21 -14 -21 -17
0 -3 5 -2 10 1 6 3 10 4 10 1 0 -3 -10 -10 -21 -17 -17 -9 -20 -8 -14 3 4 7
-3 2 -15 -12 -12 -14 -19 -19 -15 -12 6 11 3 12 -14 3 -11 -7 -21 -14 -21 -17
0 -3 5 -2 10 1 6 3 10 4 10 1 0 -3 -10 -10 -21 -17 -16 -8 -20 -8 -14 1 6 9 2
9 -14 1 -22 -12 -30 -27 -8 -16 18 10 -25 -25 -47 -37 -14 -7 -17 -7 -11 2 6
9 2 9 -14 1 -22 -12 -30 -27 -8 -16 18 10 -25 -25 -47 -37 -14 -7 -17 -7 -11
2 6 9 2 9 -14 1 -11 -7 -21 -14 -21 -17 0 -3 5 -2 10 1 6 3 10 4 10 1 0 -3
-10 -10 -21 -17 -17 -9 -20 -8 -14 3 4 7 -3 2 -15 -12 -12 -14 -19 -19 -15
-12 6 11 3 12 -14 3 -11 -7 -21 -14 -21 -17 0 -3 5 -2 10 1 6 3 10 4 10 1 0
-3 -10 -10 -21 -17 -17 -9 -20 -8 -14 3 4 7 -3 2 -15 -12 -12 -14 -19 -19 -15
-12 6 11 3 12 -14 3 -11 -7 -21 -14 -21 -17 0 -3 5 -2 10 1 6 3 10 4 10 1 0
-3 -10 -10 -21 -17 -17 -9 -20 -8 -14 3 4 7 -3 2 -15 -12 -12 -14 -19 -19 -15
-12 6 11 3 12 -14 3 -11 -7 -21 -14 -21 -17 0 -3 5 -2 10 1 6 3 10 4 10 1 0
-3 -10 -10 -21 -17 -17 -9 -20 -8 -14 3 4 7 -3 2 -15 -12 -12 -14 -19 -19 -15
-12 6 11 3 12 -14 3 -11 -7 -21 -14 -21 -17 0 -3 5 -2 10 1 6 3 10 4 10 1 0
-3 -10 -10 -21 -17 -17 -9 -20 -8 -14 3 4 7 -3 2 -15 -12 -12 -14 -19 -19 -15
-12 6 11 3 12 -14 3 -11 -7 -21 -14 -21 -17 0 -3 5 -2 10 1 6 3 10 4 10 1 0
-3 -10 -10 -21 -17 -16 -8 -20 -8 -14 1 6 9 2 9 -14 1 -22 -12 -30 -27 -8 -16
18 10 -25 -25 -47 -37 -14 -7 -17 -7 -11 2 6 9 2 9 -14 1 -22 -12 -30 -27 -8
-16 18 10 -25 -25 -47 -37 -14 -7 -17 -7 -11 2 6 9 2 9 -14 1 -11 -7 -21 -14
-21 -17 0 -3 5 -2 10 1 6 3 10 4 10 1 0 -3 -10 -10 -21 -17 -17 -9 -20 -8 -14
3 4 7 -3 2 -15 -12 -12 -14 -19 -19 -15 -12 6 11 3 12 -14 3 -11 -7 -21 -14
-21 -17 0 -3 5 -2 10 1 6 3 10 4 10 1 0 -3 -10 -10 -21 -17 -17 -9 -20 -8 -14
3 4 7 -3 2 -15 -12 -12 -14 -19 -19 -15 -12 6 11 3 12 -14 3 -11 -7 -21 -14
-21 -17 0 -3 5 -2 10 1 6 3 10 4 10 1 0 -3 -10 -10 -21 -17 -17 -9 -20 -8 -14
3 4 7 -3 2 -15 -12 -12 -14 -19 -19 -15 -12 6 11 3 12 -14 3 -11 -7 -21 -14
-21 -17 0 -3 5 -2 10 1 6 3 10 4 10 1 0 -3 -10 -10 -21 -17 -17 -9 -20 -8 -14
3 4 7 -3 2 -15 -12 -12 -14 -19 -19 -15 -12 6 11 3 12 -14 3 -11 -7 -21 -14
-21 -17 0 -3 5 -2 10 1 6 3 10 4 10 1 0 -3 -10 -10 -21 -17 -17 -9 -20 -8 -14
3 4 7 -3 2 -15 -12 -12 -14 -19 -19 -15 -12 6 11 3 12 -14 3 -11 -7 -21 -14
-21 -17 0 -3 5 -2 10 1 6 3 10 4 10 1 0 -3 -10 -10 -21 -17 -16 -8 -20 -8 -14
1 6 9 2 9 -14 1 -22 -12 -30 -27 -8 -16 18 10 -25 -25 -47 -37 -14 -7 -17 -7
-11 2 6 9 2 9 -14 1 -22 -12 -30 -27 -8 -16 18 10 -25 -25 -47 -37 -14 -7 -17
-7 -11 2 6 9 2 9 -14 1 -11 -7 -21 -14 -21 -17 0 -3 5 -2 10 1 6 3 10 4 10 1
0 -3 -10 -10 -21 -17 -17 -9 -20 -8 -14 3 4 7 -3 2 -15 -12 -12 -14 -19 -19
-15 -12 6 11 3 12 -14 3 -11 -7 -21 -14 -21 -17 0 -3 5 -2 10 1 6 3 10 4 10 1
0 -3 -10 -10 -21 -17 -17 -9 -20 -8 -14 3 4 7 -3 2 -15 -12 -12 -14 -19 -19
-15 -12 6 11 3 12 -14 3 -11 -7 -21 -14 -21 -17 0 -3 5 -2 10 1 6 3 10 -4 10
-17 0 -19 -2 -20 -11 -8 -7 11 -8 0 -4 -40 5 -42 3 -51 -5 -40 -8 11 -10 2 -5
-40 5 -42 3 -51 -5 -40 -8 11 -10 2 -5 -40 5 -42 3 -51 -5 -40 -8 11 -10 2 -5
-40 5 -42 3 -51 -5 -40 -8 11 -10 2 -5 -40 5 -42 3 -51 -5 -40 -8 11 -10 2 -5
-40 5 -42 3 -51 -5 -40 -8 11 -10 2 -5 -40 5 -42 3 -51 -5 -40 -8 11 -10 2 -5
-40 5 -42 3 -51 -5 -40 -8 11 -10 2 -5 -40 5 -42 3 -51 -5 -40 -8 11 -10 2 -5
-40 5 -42 3 -51 -5 -40 -8 11 -10 2 -5 -40 5 -42 3 -51 -5 -40 -8 11 -10 2 -5
-40 5 -41 3 -51 -5 -40 -8 11 -10 0 -5 -45 4 -43 2 -54 -5 -40 -7 14 -8 3 -4
-40 4 -44 2 -56 -5 -45 -8 12 -11 8 -11 -18 0 -30 2 -32 20 -22 11 6 20 13 20
16 0 3 -4 2 -10 -1 -5 -3 -10 -4 -10 -1 0 3 10 10 21 17 17 9 20 8 14 -3 -4
-7 3 -2 15 12 12 14 19 19 15 12 -6 -11 -3 -12 14 -3 11 7 21 14 21 17 0 3 -4
2 -10 -1 -5 -3 -10 -4 -10 -1 0 3 10 10 21 17 17 9 20 8 14 -3 -4 -7 3 -2 15
12 12 14 19 19 15 12 -6 -11 -3 -12 14 -3 11 7 21 14 21 17 0 3 -4 2 -10 -1
-5 -3 -10 -4 -10 -1 0 3 10 10 21 17 17 9 20 8 14 -3 -4 -7 3 -2 15 12 12 14
19 19 15 12 -6 -11 -3 -12 14 -3 11 7 21 14 21 17 0 3 -4 2 -10 -1 -5 -3 -10
-4 -10 -1 0 3 10 10 21 17 17 9 20 8 14 -3 -4 -7 3 -2 15 12 12 14 19 19 15
12 -6 -11 -3 -12 14 -3 11 7 21 14 21 17 0 3 -4 2 -10 -1 -5 -3 -10 -4 -10 -1
0 3 10 10 21 17 16 8 20 8 14 -1 -6 -9 -2 -9 14 -1 22 12 30 27 9 16 -19 -10
24 25 46 37 14 7 17 7 11 -2 -6 -9 -2 -9 14 -1 22 12 30 27 9 16 -19 -10 24
25 46 37 14 7 17 7 11 -2 -6 -9 -2 -9 14 -1 11 7 21 14 21 17 0 3 -4 2 -10 -1
-5 -3 -10 -4 -10 -1 0 3 10 10 21 17 17 9 20 8 14 -3 -4 -7 3 -2 15 12 12 14
19 19 15 12 -6 -11 -3 -12 14 -3 11 7 21 14 21 17 0 3 -4 2 -10 -1 -5 -3 -10
-4 -10 -1 0 3 10 10 21 17 17 9 20 8 14 -3 -4 -7 3 -2 15 12 12 14 19 19 15
12 -6 -11 -3 -12 14 -3 11 7 21 14 21 17 0 3 -4 2 -10 -1 -5 -3 -10 -4 -10 -1
0 3 10 10 21 17 17 9 20 8 14 -3 -4 -7 3 -2 15 12 12 14 19 19 15 12 -6 -11
-3 -12 14 -3 11 7 21 14 21 17 0 3 -4 2 -10 -1 -5 -3 -10 -4 -10 -1 0 3 10 10
21 17 17 9 20 8 14 -3 -4 -7 3 -2 15 12 12 14 19 19 15 12 -6 -11 -3 -12 14
-3 11 7 21 14 21 17 0 3 -4 2 -10 -1 -5 -3 -10 -4 -10 -1 0 3 10 10 21 17 16
8 20 8 14 -1 -6 -9 -2 -9 14 -1 22 12 30 27 9 16 -19 -10 24 25 46 37 14 7 17
7 11 -2 -6 -9 -2 -9 14 -1 11 7 21 14 21 17 0 3 -4 2 -10 -1 -5 -3 -10 -4 -10
-1 0 3 10 10 21 17 17 9 20 8 14 -3 -4 -7 3 -2 15 12 12 14 19 19 15 12 -6
-11 -3 -12 14 -3 11 7 21 14 21 17 0 3 -4 2 -10 -1 -5 -3 -10 -4 -10 -1 0 3
10 10 21 17 17 9 20 8 14 -3 -4 -7 3 -2 15 12 12 14 19 19 15 12 -6 -11 -3
-12 14 -3 11 7 21 14 21 17 0 3 -4 2 -10 -1 -5 -3 -10 -4 -10 -1 0 3 10 10 21
17 17 9 20 8 14 -3 -4 -7 3 -2 15 12 12 14 19 19 15 12 -6 -11 -3 -12 14 -3
11 7 21 14 21 17 0 3 -4 2 -10 -1 -5 -3 -10 -4 -10 -1 0 3 10 10 21 17 17 9
20 8 14 -3 -4 -7 3 -2 15 12 12 14 19 19 15 12 -6 -11 -3 -12 14 -3 11 7 21
14 21 17 0 3 -4 2 -10 -1 -5 -3 -10 -4 -10 -1 0 3 10 10 21 17 16 8 20 8 14
-1 -6 -9 -2 -9 14 -1 22 12 30 27 9 16 -19 -10 24 25 46 37 14 7 17 7 11 -2
-6 -9 -2 -9 14 -1 22 12 30 27 9 16 -19 -10 24 25 46 37 14 7 17 7 11 -2 -6
-9 -2 -9 14 -1 11 7 21 14 21 17 0 3 -4 2 -10 -1 -5 -3 -10 -4 -10 -1 0 3 10
10 21 17 17 9 20 8 14 -3 -4 -7 3 -2 15 12 12 14 19 19 15 13 -4 -9 -1 -11 9
-7 14 6 16 -203 17 -2117 0 -1234 4 -2115 9 -2102 5 12 19 27 31 33 17 10 20
9 14 -2 -4 -7 3 -2 15 12 12 14 19 18 15 10 -4 -8 3 -4 15 10 12 14 18 18 14
10 -8 -15 -6 -14 89 48 35 23 51 40 25 27 -7 -4 -2 3 12 14 14 11 30 19 37 16
7 -2 15 1 19 7 4 7 3 8 -4 4 -7 -4 -12 -5 -12 -2 0 3 10 10 21 17 17 9 20 8
14 -3 -4 -7 3 -2 15 12 12 14 19 18 15 10 -4 -8 3 -4 15 10 12 14 18 18 14 10
-8 -15 -6 -14 89 48 35 23 51 40 25 27 -7 -4 -2 3 12 14 14 11 30 19 37 16 7
-2 15 1 19 7 4 7 3 8 -4 4 -7 -4 -12 -5 -12 -2 0 3 10 10 21 17 17 9 20 8 14
-3 -4 -7 3 -2 15 12 12 14 19 18 15 10 -4 -8 3 -4 15 10 12 14 18 19 14 11 -5
-10 1 -9 23 4 35 21 84 59 63 50 -8 -4 -4 3 10 14 14 11 30 19 37 16 7 -2 15
1 19 7 5 7 2 8 -6 3 -9 -6 -11 -4 -6 4 5 7 14 10 22 7 7 -3 16 0 20 6 4 7 3 8
-4 4 -7 -4 -12 -5 -12 -2 0 3 10 10 21 17 17 9 20 8 14 -3 -4 -7 3 -2 15 12
12 14 19 18 15 10 -4 -8 3 -4 15 10 12 14 19 19 15 12 -6 -11 -3 -12 11 -4 23
13 65 47 45 36 -9 -4 -12 -3 -7 4 4 6 13 9 21 5 13 -4 15 255 16 2108 1 1163
1 2117 1 2121 -1 3 5 9 14 12 10 4 13 1 9 -7 -4 -6 3 -1 15 13 12 14 19 19 15
12 -6 -11 -3 -12 14 -3 11 7 21 14 21 17 0 3 -4 2 -10 -1 -5 -3 -10 -4 -10 -1
0 3 10 10 21 17 17 9 20 8 14 -3 -4 -7 3 -2 15 12 12 14 19 19 15 12 -6 -11
-3 -12 14 -3 11 7 21 14 21 17 0 3 -4 2 -10 -1 -5 -3 -10 -4 -10 -1 0 3 10 10
21 17 17 9 20 8 14 -3 -4 -7 3 -2 15 12 12 14 19 19 15 12 -6 -11 -3 -12 14
-3 11 7 21 14 21 17 0 3 -4 2 -10 -1 -5 -3 -10 -4 -10 -1 0 3 10 10 21 17 16
8 20 8 14 -1 -6 -9 -2 -9 14 -1 22 12 30 27 9 16 -19 -10 24 25 46 37 14 7 17
7 11 -2 -6 -9 -2 -9 14 -1 22 12 30 27 9 16 -19 -10 24 25 46 37 14 7 17 7 11
-2 -6 -9 -2 -9 14 -1 11 7 21 14 21 17 0 3 -4 2 -10 -1 -5 -3 -10 -4 -10 -1 0
3 10 10 21 17 17 9 20 8 14 -3 -4 -7 3 -2 15 12 12 14 19 19 15 12 -6 -11 -3
-12 14 -3 11 7 21 14 21 17 0 3 -4 2 -10 -1 -5 -3 -10 -4 -10 -1 0 3 10 10 21
17 17 9 20 8 14 -3 -4 -7 3 -2 15 12 12 14 19 19 15 12 -6 -11 -3 -12 14 -3
11 7 21 14 21 17 0 3 -4 2 -10 -1 -5 -3 -10 -4 -10 -1 0 3 10 10 21 17 17 9
20 8 14 -3 -4 -7 3 -2 15 12 12 14 19 19 15 12 -6 -11 -3 -12 14 -3 11 7 21
14 21 17 0 3 -4 2 -10 -1 -5 -3 -10 -4 -10 -1 0 3 10 10 21 17 17 9 20 8 14
-3 -4 -7 3 -2 15 12 12 14 19 19 15 12 -6 -11 -3 -12 14 -3 11 7 21 14 21 17
0 3 -4 2 -10 -1 -5 -3 -10 -4 -10 -1 0 3 10 10 21 17 16 8 20 8 14 -1 -6 -9
-2 -9 14 -1 22 12 30 27 9 16 -19 -10 24 25 46 37 14 7 17 7 11 -2 -6 -9 -2
-9 14 -1 22 12 30 27 9 16 -19 -10 24 25 46 37 14 7 17 7 11 -2 -6 -9 -2 -9
14 -1 11 7 21 14 21 17 0 3 -4 2 -10 -1 -5 -3 -10 -4 -10 -1 0 3 10 10 21 17
17 9 20 8 14 -3 -4 -7 3 -2 15 12 12 14 19 19 15 12 -6 -11 -3 -12 14 -3 11 7
21 14 21 17 0 3 -4 2 -10 -1 -5 -3 -10 -4 -10 -1 0 3 10 10 21 17 17 9 20 8
14 -3 -4 -7 3 -2 15 12 12 14 19 19 15 12 -6 -11 -3 -12 14 -3 11 7 21 14 21
17 0 3 -4 2 -10 -1 -5 -3 -10 -4 -10 -1 0 3 10 10 21 17 17 9 20 8 14 -3 -4
-7 3 -2 15 12 12 14 19 19 15 12 -6 -11 -3 -12 14 -3 11 7 21 14 21 17 0 3 -4
2 -10 -1 -5 -3 -10 -4 -10 -1 0 3 10 10 21 17 16 8 20 8 14 -1 -6 -9 -3 -9 11
-2 22 12 65 47 47 37 -22 -11 -14 4 8 16 16 8 20 8 14 -1 -6 -9 -2 -9 14 -1
22 12 30 27 9 16 -19 -10 24 25 46 37 14 7 17 7 11 -2 -6 -9 -2 -9 14 -1 11 7
21 14 21 17 0 3 -4 2 -10 -1 -5 -3 -10 -4 -10 -1 0 3 10 10 21 17 17 9 20 8
14 -3 -4 -7 3 -2 15 12 12 14 19 19 15 12 -6 -11 -3 -12 14 -3 11 7 21 14 21
17 0 3 -4 2 -10 -1 -5 -3 -10 -4 -10 -1 0 3 10 10 21 17 17 9 20 8 14 -3 -4
-7 3 -2 15 12 12 14 19 19 15 12 -6 -11 -3 -12 14 -3 11 7 21 14 21 17 0 3 -4
2 -10 -1 -5 -3 -10 -4 -10 -1 0 3 10 10 21 17 17 9 20 8 14 -3 -4 -7 3 -2 15
12 12 14 19 19 15 12 -6 -11 -3 -12 14 -3 11 7 21 14 21 17 0 3 -4 2 -10 -1
-5 -3 -10 -4 -10 -1 0 3 10 10 21 17 17 9 20 8 14 -3 -4 -7 3 -2 15 12 12 14
19 19 15 12 -6 -11 -3 -12 14 -3 11 7 21 14 21 17 0 3 -4 2 -10 -1 -5 -3 -10
-4 -10 -1 0 3 10 10 21 17 16 8 20 8 14 -1 -6 -9 -2 -9 14 -1 22 12 30 27 9
16 -19 -10 24 25 46 37 14 7 17 7 11 -2 -6 -9 -2 -9 14 -1 22 12 30 27 9 16
-19 -10 24 25 46 37 14 7 17 7 11 -2 -6 -9 -2 -9 14 -1 11 7 21 14 21 17 0 3
-4 2 -10 -1 -5 -3 -10 -4 -10 -1 0 3 10 10 21 17 17 9 20 8 14 -3 -4 -7 2 -3
12 9 11 14 23 19 31 15 10 -7 12 -426 10 -2075 -2 -1137 1 -2066 5 -2064 5 1
9 7 9 12 1 14 36 37 47 30 5 -3 13 0 17 6 5 8 3 9 -6 4 -9 -6 -11 -4 -6 4 5 7
14 10 22 7 7 -3 16 0 20 6 4 7 3 8 -4 4 -7 -4 -12 -5 -12 -2 0 3 10 10 21 17
17 9 20 8 14 -3 -4 -7 3 -2 15 12 12 14 19 18 15 10 -4 -8 3 -4 15 10 12 14
18 19 14 11 -5 -10 1 -9 23 4 35 21 84 59 63 50 -8 -4 -4 3 10 14 14 11 30 19
37 16 7 -2 15 1 19 7 5 7 2 8 -6 3 -9 -6 -11 -4 -6 4 5 7 14 10 22 7 7 -3 16
0 20 6 4 7 3 8 -4 4 -7 -4 -12 -5 -12 -2 0 3 10 10 21 17 17 9 20 8 14 -3 -4
-7 3 -2 15 12 12 14 19 18 15 10 -4 -8 3 -4 15 10 12 14 18 19 14 11 -5 -10 1
-9 23 4 35 21 84 59 63 50 -8 -4 -4 3 10 14 14 11 30 19 37 16 7 -2 15 1 19 7
4 7 3 8 -4 4 -7 -4 -12 -5 -12 -2 0 3 10 10 21 17 17 9 20 8 14 -3 -4 -7 3 -2
15 12 12 14 19 18 15 10 -4 -8 3 -4 15 10 12 14 19 18 15 10 -4 -8 3 -4 15 10
12 14 18 19 14 11 -5 -10 1 -9 23 4 35 21 84 59 63 50 -8 -4 -4 3 10 14 14 11
30 19 37 16 7 -2 15 1 19 7 4 7 3 8 -4 4 -7 -4 -12 -5 -12 -2 0 3 10 10 21 17
17 9 20 8 14 -3 -4 -7 3 -2 15 12 12 14 19 19 15 13 -3 -7 -1 -13 4 -13 8 0
11 618 11 2063 l0 2062 21 25 c11 14 18 19 14 12 -6 -11 -3 -12 14 -3 11 7 21
14 21 17 0 3 -4 2 -10 -1 -5 -3 -10 -4 -10 -1 0 3 10 10 21 17 17 9 20 8 14
-3 -4 -7 3 -2 15 12 12 14 19 19 15 12 -6 -11 -3 -12 14 -3 11 7 21 14 21 17
0 3 -4 2 -10 -1 -5 -3 -10 -4 -10 -1 0 3 10 10 21 17 17 9 20 8 14 -3 -4 -7 3
-2 15 12 12 14 19 19 15 12 -6 -11 -3 -12 14 -3 11 7 21 14 21 17 0 3 -4 2
-10 -1 -5 -3 -10 -4 -10 -1 0 3 10 10 21 17 17 9 20 8 14 -3 -4 -7 3 -2 15 12
12 14 19 19 15 12 -6 -11 -3 -12 14 -3 11 7 21 14 21 17 0 3 -4 2 -10 -1 -5
-3 -10 -4 -10 -1 0 3 10 10 21 17 16 8 20 8 14 -1 -6 -9 -2 -9 14 -1 22 12 30
27 9 16 -19 -10 24 25 46 37 14 7 17 7 11 -2 -6 -9 -2 -9 14 -1 22 12 30 27 9
16 -19 -10 24 25 46 37 14 7 17 7 11 -2 -6 -9 -2 -9 14 -1 11 7 21 14 21 17 0
3 -4 2 -10 -1 -5 -3 -10 -4 -10 -1 0 3 10 10 21 17 17 9 20 8 14 -3 -4 -7 3
-2 15 12 12 14 19 19 15 12 -6 -11 -3 -12 14 -3 11 7 21 14 21 17 0 3 -4 2
-10 -1 -5 -3 -10 -4 -10 -1 0 3 10 10 21 17 17 9 20 8 14 -3 -4 -7 3 -2 15 12
12 14 19 19 15 12 -6 -11 -3 -12 14 -3 11 7 21 14 21 17 0 3 -4 2 -10 -1 -5
-3 -10 -4 -10 -1 0 3 10 10 21 17 17 9 20 8 14 -3 -4 -7 3 -2 15 12 12 14 19
19 15 12 -6 -11 -3 -12 14 -3 11 7 21 14 21 17 0 3 -4 2 -10 -1 -5 -3 -10 -4
-10 -1 0 3 10 10 21 17 17 9 20 8 14 -3 -4 -7 3 -2 15 12 12 14 19 19 15 12
-6 -11 -3 -12 14 -3 11 7 21 14 21 17 0 3 -4 2 -10 -1 -5 -3 -10 -4 -10 -1 0
3 10 10 21 17 16 8 20 8 14 -1 -6 -9 -2 -9 14 -1 22 12 30 27 9 16 -19 -10 24
25 46 37 14 7 17 7 11 -2 -6 -9 -2 -9 14 -1 11 7 21 14 21 17 0 3 -4 2 -10 -1
-5 -3 -10 -4 -10 -1 0 3 10 10 21 17 17 9 20 8 14 -3 -4 -7 3 -2 15 12 12 14
19 19 15 12 -6 -11 -3 -12 14 -3 11 7 21 14 21 17 0 3 -4 2 -10 -1 -5 -3 -10
-4 -10 -1 0 3 10 10 21 17 17 9 20 8 14 -3 -4 -7 3 -2 15 12 12 14 19 19 15
12 -6 -11 -3 -12 14 -3 11 7 21 14 21 17 0 3 -4 2 -10 -1 -5 -3 -10 -4 -10 -1
0 3 10 10 21 17 17 9 20 8 14 -3 -4 -7 3 -2 15 12 12 14 19 19 15 12 -6 -11
-3 -12 14 -3 11 7 21 14 21 17 0 3 -4 2 -10 -1 -5 -3 -10 -4 -10 -1 0 3 10 10
21 17 17 9 20 8 14 -3 -4 -7 3 -2 15 12 12 14 19 19 15 12 -6 -11 -3 -12 14
-3 11 7 21 14 21 17 0 3 -4 2 -10 -1 -5 -3 -10 -4 -10 -1 0 3 10 10 21 17 16
8 20 8 14 -1 -6 -9 -3 -9 11 -2 22 12 65 47 47 37 -22 -11 -14 4 8 16 16 8 20
8 14 -1 -6 -9 -2 -9 14 -1 22 12 30 27 9 16 -19 -10 24 25 46 37 14 7 17 7 11
-2 -6 -9 -2 -9 14 -1 11 7 21 14 21 17 0 3 -4 2 -10 -1 -5 -3 -10 -4 -10 -1 0
3 10 10 21 17 17 9 20 8 14 -3 -4 -7 3 -2 15 12 12 14 19 19 15 12 -6 -11 -3
-12 14 -3 11 7 21 14 21 17 0 3 -4 2 -10 -1 -5 -3 -10 -4 -10 -1 0 3 10 10 21
17 17 9 20 8 14 -3 -4 -7 3 -2 15 12 12 14 19 19 15 12 -6 -11 -3 -12 14 -3
11 7 21 14 21 17 0 3 -4 2 -10 -1 -5 -3 -10 -4 -10 -1 0 3 10 10 21 17 17 9
20 8 14 -3 -4 -7 3 -2 15 12 12 14 19 19 15 12 -6 -11 -3 -12 14 -3 11 7 21
14 21 17 0 3 -4 2 -10 -1 -5 -3 -10 -4 -10 -1 0 3 10 10 21 17 17 9 20 8 14
-3 -4 -7 3 -2 15 12 12 14 19 19 15 12 -6 -11 -3 -12 14 -3 11 7 21 14 21 17
0 3 -4 2 -10 -1 -5 -3 -10 -4 -10 -1 0 3 10 10 21 17 16 8 20 8 14 -1 -6 -9
-2 -9 14 -1 22 12 30 27 9 16 -19 -10 24 25 46 37 14 7 17 7 11 -2 -6 -9 -2
-9 14 -1 22 12 30 27 9 16 -19 -10 24 25 46 37 14 7 17 7 11 -2 -6 -9 -2 -9
14 -1 11 7 21 14 21 17 0 3 -4 2 -10 -1 -5 -3 -10 -4 -10 -1 0 3 10 10 21 17
17 9 20 8 14 -3 -4 -7 3 -2 15 12 12 14 19 19 15 12 -6 -11 -3 -12 14 -3 11 7
21 14 21 17 0 3 -4 2 -10 -1 -5 -3 -10 -4 -10 -1 0 3 10 10 21 17 17 9 20 8
14 -3 -4 -7 3 -2 15 12 12 14 19 19 15 12 -6 -11 -3 -12 14 -3 11 7 21 14 21
17 0 3 -4 2 -10 -1 -5 -3 -10 -4 -10 -1 0 3 10 10 21 17 17 9 20 8 14 -3 -4
-7 3 -2 15 12 12 14 19 19 15 12 -6 -11 -3 -12 14 -3 11 7 21 14 21 17 0 3 -4
2 -10 -1 -5 -3 -10 -4 -10 -1 0 3 10 10 21 17 17 9 20 8 14 -3 -4 -7 3 -2 15
12 12 14 19 19 15 12 -6 -11 -3 -12 14 -3 11 7 21 14 21 17 0 3 -4 2 -10 -1
-5 -3 -10 -4 -10 -1 0 3 10 10 21 17 16 8 20 8 14 -1 -6 -9 -2 -9 14 -1 22 12
30 27 9 16 -19 -10 24 25 46 37 14 7 17 7 11 -2 -6 -9 -2 -9 14 -1 11 7 21 14
21 17 0 3 -5 2 -12 -2 -7 -4 -8 -3 -4 5 4 6 13 11 19 10 27 -3 47 2 47 12 0 5
-5 7 -12 3 -7 -4 -8 -3 -4 4 4 6 13 9 20 6 8 -3 17 0 22 7 4 8 3 10 -4 5 -7
-4 -12 -5 -12 -2 0 3 10 10 21 17 17 9 20 8 14 -3 -4 -7 3 -2 15 12 12 14 19
19 15 12 -6 -11 -3 -12 14 -3 11 7 21 14 21 17 0 3 -4 2 -10 -1 -5 -3 -10 -4
-10 -1 0 3 10 10 21 17 17 9 20 8 14 -3 -4 -7 3 -2 15 12 12 14 19 19 15 12
-6 -11 -3 -12 14 -3 11 7 21 14 21 17 0 3 -4 2 -10 -1 -5 -3 -10 -4 -10 -1 0
3 10 10 21 17 17 9 20 8 14 -3 -4 -7 3 -2 15 12 12 14 19 19 15 12 -6 -11 -3
-12 14 -3 11 7 21 14 21 17 0 3 -4 2 -10 -1 -5 -3 -10 -4 -10 -1 0 3 10 10 21
17 16 8 20 8 14 -1 -6 -9 -2 -9 14 -1 22 12 30 27 9 16 -19 -10 24 25 46 37
14 7 17 7 11 -2 -6 -9 -2 -9 14 -1 22 12 30 27 9 16 -19 -10 24 25 46 37 14 7
17 7 11 -2 -6 -9 -2 -9 14 -1 11 7 21 14 21 17 0 3 -4 2 -10 -1 -5 -3 -10 -4
-10 -1 0 3 10 10 21 17 17 9 20 8 14 -3 -4 -7 3 -2 15 12 12 14 19 19 15 12
-6 -11 -3 -12 14 -3 11 7 21 14 21 17 0 3 -4 2 -10 -1 -5 -3 -10 -4 -10 -1 0
3 10 10 21 17 17 9 20 8 14 -3 -4 -7 3 -2 15 12 12 14 19 19 15 12 -6 -11 -3
-12 14 -3 11 7 21 14 21 17 0 3 -4 2 -10 -1 -5 -3 -10 -4 -10 -1 0 3 10 10 21
17 17 9 20 8 14 -3 -4 -7 3 -2 15 12 12 14 19 19 15 12 -6 -11 -3 -12 14 -3
11 7 21 14 21 17 0 3 -4 2 -10 -1 -5 -3 -10 -4 -10 -1 0 3 10 10 21 17 17 9
20 8 14 -3 -4 -7 3 -2 15 12 12 14 19 19 15 12 -6 -11 -3 -12 14 -3 11 7 21
14 21 17 0 3 -4 2 -10 -1 -5 -3 -10 -4 -10 -1 0 3 10 10 21 17 16 8 20 8 14
-1 -6 -9 -2 -9 14 -1 22 12 30 27 9 16 -19 -10 24 25 46 37 14 7 17 7 11 -2
-6 -9 -2 -9 14 -1 22 12 30 27 9 16 -19 -10 24 25 46 37 14 7 17 7 11 -2 -6
-9 -2 -9 14 -1 11 7 21 14 21 17 0 3 -4 2 -10 -1 -5 -3 -10 -4 -10 -1 0 3 10
10 21 17 17 9 20 8 14 -3 -4 -7 3 -2 15 12 12 14 19 19 15 12 -6 -11 -3 -12
14 -3 11 7 21 14 21 17 0 3 -4 2 -10 -1 -5 -3 -10 -4 -10 -1 0 3 10 10 21 17
17 9 20 8 14 -3 -4 -7 3 -2 15 12 12 14 19 19 15 12 -6 -11 -3 -12 14 -3 11 7
21 14 21 17 0 3 -4 2 -10 -1 -5 -3 -10 -4 -10 -1 0 3 10 10 21 17 17 9 20 8
14 -3 -4 -7 3 -2 15 12 12 14 19 19 15 12 -6 -11 -3 -12 14 -3 11 7 21 14 21
17 0 3 -4 2 -10 -1 -5 -3 -10 -4 -10 -1 0 3 10 10 21 17 17 9 20 8 14 -3 -4
-7 3 -2 15 12 12 14 19 19 15 12 -6 -11 -3 -12 14 -3 11 7 21 14 21 17 0 3 -4
2 -10 -1 -5 -3 -10 -4 -10 -1 0 3 10 10 21 17 17 9 20 8 14 -2 -5 -8 -4 -10 3
-5 7 4 24 14 40 22 23 12 -464 14 -3740 14 -2073 0 -3768 -3 -3768 -7z m-170
-198 c-107 -107 -197 -195 -200 -195 -3 0 83 88 190 195 107 107 197 195 200
195 3 0 -83 -88 -190 -195z m3762 -1162 c-2 -21 -7 -290 -12 -598 l-8 -560 4
588 c3 511 6 607 17 607 2 0 1 -17 -1 -37z"/>
</g>
</svg>
